<svg width="53" height="53" viewBox="0 0 53 53" fill="none" xmlns="http://www.w3.org/2000/svg">
<circle cx="26.5" cy="26.5" r="26.5" fill="#43CD93"/>
<path d="M32.9099 31.832V35H20.2139V32.48L26.6939 26.36C27.3819 25.704 27.8459 25.144 28.0859 24.68C28.3259 24.2 28.4459 23.728 28.4459 23.264C28.4459 22.592 28.2139 22.08 27.7499 21.728C27.3019 21.36 26.6379 21.176 25.7579 21.176C25.0219 21.176 24.3579 21.32 23.7659 21.608C23.1739 21.88 22.6779 22.296 22.2779 22.856L19.4459 21.032C20.1019 20.056 21.0059 19.296 22.1579 18.752C23.3099 18.192 24.6299 17.912 26.1179 17.912C27.3659 17.912 28.4539 18.12 29.3819 18.536C30.3259 18.936 31.0539 19.512 31.5659 20.264C32.0939 21 32.3579 21.872 32.3579 22.88C32.3579 23.792 32.1659 24.648 31.7819 25.448C31.3979 26.248 30.6539 27.16 29.5499 28.184L25.6859 31.832H32.9099Z" fill="white"/>
</svg>
