<svg width="53" height="53" viewBox="0 0 53 53" fill="none" xmlns="http://www.w3.org/2000/svg">
<circle cx="26.5" cy="26.5" r="26.5" fill="#43CD93"/>
<path d="M28.1824 25.04C29.6544 25.28 30.7824 25.832 31.5664 26.696C32.3504 27.544 32.7424 28.6 32.7424 29.864C32.7424 30.84 32.4864 31.744 31.9744 32.576C31.4624 33.392 30.6784 34.048 29.6224 34.544C28.5824 35.04 27.3024 35.288 25.7824 35.288C24.5984 35.288 23.4304 35.136 22.2784 34.832C21.1424 34.512 20.1744 34.064 19.3744 33.488L20.8864 30.512C21.5264 30.992 22.2624 31.368 23.0944 31.64C23.9424 31.896 24.8064 32.024 25.6864 32.024C26.6624 32.024 27.4304 31.84 27.9904 31.472C28.5504 31.088 28.8304 30.552 28.8304 29.864C28.8304 28.488 27.7824 27.8 25.6864 27.8H23.9104V25.232L27.3664 21.32H20.2144V18.2H31.9744V20.72L28.1824 25.04Z" fill="white"/>
</svg>
