<?xml version="1.0" encoding="UTF-8"?> <svg xmlns="http://www.w3.org/2000/svg" width="350" height="88" viewBox="0 0 350 88" fill="none"><g clip-path="url(#clip0_884_2)"><g clip-path="url(#clip1_884_2)"><path fill-rule="evenodd" clip-rule="evenodd" d="M35.8609 7.74916C30.7766 8.57695 23.3581 11.3025 16.7858 15.4022C11.6495 18.6063 7.0529 22.6377 4.54803 27.2301C2.08779 31.7405 1.39233 35.7547 1.84816 39.5245C2.30704 43.3177 3.9374 46.9048 6.11435 50.5168C7.61179 53.0014 10.0499 56.2676 12.5751 58.5593C14.3212 60.1439 16.0711 61.2433 17.4787 61.2109C17.9243 61.0652 18.5128 60.6403 19.1873 60.018C21.1933 58.1674 23.679 54.7608 25.5928 51.5216C27.393 48.4751 28.6793 45.6688 28.5156 44.6476C27.7916 44.2191 27.048 43.8548 26.3124 43.4939C23.6781 42.2032 21.1244 40.9513 19.7549 37.3855C18.9535 35.2988 19.2301 32.6185 20.1222 29.7711C21.2015 26.3267 23.1915 22.5887 25.2272 19.4003C26.2601 17.7825 27.8712 15.9053 29.6264 14.1108C31.6897 12.0011 33.9644 9.98896 35.7358 8.64028C36.2522 8.24721 36.905 7.84824 37.6081 7.46463L35.8609 7.74916ZM15.8797 13.9466C22.6427 9.72797 30.311 6.91773 35.5855 6.05902L43.1605 4.82556L43.227 4.81247L43.2292 4.82724L43.2301 4.82704L43.2281 4.81532C43.8175 4.72117 44.1507 4.91548 44.2657 5.44653C44.2724 5.47164 44.2777 5.49705 44.282 5.52325L44.2794 5.52355C44.392 6.21562 43.7152 6.50931 42.6694 6.96274C41.1123 7.63748 38.2539 8.87704 36.7759 10.0021C35.0604 11.3084 32.8558 13.2587 30.8548 15.3045C29.1666 17.0304 27.6307 18.8146 26.6701 20.3194C24.7071 23.394 22.7911 26.9884 21.7595 30.2809C20.9733 32.791 20.7063 35.0931 21.352 36.7751C22.4793 39.7107 24.7362 40.8171 27.0643 41.9577C27.9013 42.3684 28.7482 42.7839 29.5585 43.2755C29.6462 43.3201 29.7272 43.3808 29.7978 43.4572L29.1669 44.0399L29.7978 43.4598C29.968 43.6438 30.087 43.8726 30.1571 44.1401C30.5269 45.555 29.1214 48.9207 27.0693 52.3937C25.0831 55.7558 22.4782 59.3142 20.3482 61.2793C19.4734 62.0861 18.6438 62.6506 17.9173 62.8664C17.838 62.8961 17.7531 62.9148 17.664 62.9198L17.6145 62.0627L17.6614 62.9178C15.7168 63.0295 13.5161 61.7285 11.4211 59.8273C8.76249 57.4146 6.20825 53.9967 4.64459 51.4023C2.35512 47.6035 0.637351 43.8051 0.143787 39.7255C-0.352536 35.6219 0.393772 31.2715 3.04467 26.4115C5.70769 21.5296 10.5219 17.2889 15.8797 13.9466V13.9466Z" fill="#1D4797"></path><path fill-rule="evenodd" clip-rule="evenodd" d="M48.8603 5.78809C61.5623 11.1889 59.422 27.5002 53.2856 31.8388C47.1491 36.1773 43.9083 37.6744 43.3826 38.8425C41.67 42.647 39.9653 47.0978 37.2646 52.398C35.0529 56.7386 40.8106 54.4299 42.9829 53.5399C49.5842 50.8353 51.6567 50.0205 58.4023 44.7904C65.1479 39.5603 68.7147 26.7141 66.4612 20.1439C64.2077 13.5738 60.7132 10.5764 59.5232 9.83276C58.333 9.08899 55.3446 7.44021 53.4678 6.96205L48.8603 5.78809Z" fill="#1D4797"></path><path fill-rule="evenodd" clip-rule="evenodd" d="M45.0934 5.83276C46.7325 5.83257 48.4203 10.3418 47.7147 13.9003C46.8565 18.2278 46.2055 21.7497 44.6679 26.883C43.1304 32.0164 36.9045 49.8874 35.1778 53.1757L27.6431 67.5233C25.9186 70.8073 25.9954 68.2077 25.1029 67.2396C24.553 66.6433 23.4596 65.8437 22.7581 65.6692C19.556 64.8727 20.58 64.8199 22.9329 61.5586C25.2857 58.2972 28.0194 53.8255 29.4869 50.7597C31.7557 46.0202 33.8136 41.1818 35.9767 36.3933C38.0364 31.8332 39.4872 27.0488 41.1678 22.336C42.2757 19.2291 44.2743 10.5834 45.0934 5.83276V5.83276Z" fill="#1D4797"></path><path fill-rule="evenodd" clip-rule="evenodd" d="M46.399 0.0172799C42.7114 0.0172799 44.924 5.30044 46.6449 5.30044C51.0701 5.30044 49.8409 -0.351358 46.399 0.0172799Z" fill="#1D4797"></path><path fill-rule="evenodd" clip-rule="evenodd" d="M197.155 66.5143V69.0152V70.0001H196.169H192.418H191.432V69.0152V66.5143C188.877 66.4437 186.515 66.0966 184.346 65.473C181.878 64.7636 179.664 63.6969 177.704 62.2741C175.716 60.8314 174.217 59.1501 173.211 57.232C172.201 55.3073 171.695 53.1651 171.695 50.8073C171.695 45.992 173.669 42.1151 177.614 39.1785C179.547 37.7399 181.756 36.6613 184.24 35.9441C186.434 35.3107 188.831 34.959 191.432 34.8884V33.4883V32.5033H192.418H196.169H197.155V33.4883V34.8884C199.756 34.959 202.155 35.3107 204.347 35.9441C206.832 36.6616 209.041 37.7402 210.974 39.1785C212.939 40.6416 214.417 42.3442 215.405 44.2845C216.396 46.2321 216.892 48.4071 216.892 50.8073C216.892 53.1651 216.386 55.3073 215.376 57.2317C214.37 59.1499 212.872 60.8311 210.884 62.2741C208.924 63.6969 206.709 64.7636 204.241 65.473C202.073 66.0966 199.71 66.4437 197.155 66.5143V66.5143ZM197.155 39.5294V61.8721C201.133 61.7259 204.423 60.6823 207.026 58.7415C208.402 57.7158 209.428 56.5438 210.106 55.2269C210.779 53.9184 211.115 52.4446 211.115 50.8073C211.115 47.4588 209.776 44.7528 207.096 42.6924C205.726 41.6391 204.139 40.8467 202.336 40.3169C200.777 39.8588 199.05 39.5964 197.155 39.5294V39.5294ZM191.432 39.5299C187.359 39.6745 184.045 40.7287 181.491 42.6924C180.143 43.729 179.136 44.9208 178.469 46.2662C177.805 47.6082 177.472 49.1224 177.472 50.8073C177.472 52.4614 177.809 53.945 178.482 55.2568C179.158 56.5756 180.184 57.7448 181.558 58.7627C182.96 59.8012 184.557 60.5812 186.35 61.1017C187.89 61.5489 189.584 61.8059 191.432 61.8727V39.5299ZM219.337 66.3476V35.8598V34.875H220.323H229.893C239.539 34.875 244.362 38.1109 244.362 44.5828C244.362 46.2634 244 47.7411 243.281 49.0188C242.561 50.2975 241.49 51.3569 240.075 52.2004C238.848 52.9312 237.401 53.4812 235.734 53.8433C234.11 54.1962 232.271 54.3755 230.219 54.3755H225.115V66.3476V67.3325H224.13H220.323H219.337V66.3476ZM225.115 39.5123V49.7375H229.893C235.47 49.7375 238.259 48.0615 238.259 44.7097C238.259 43.0054 237.605 41.7351 236.297 40.9004C234.849 39.9752 232.605 39.5123 229.566 39.5123H225.115ZM268.22 67.1904H247.939H246.954V66.2056V35.7177V34.7329H247.939H268.22H269.205V35.7177V38.3853V39.3702H268.22H252.677V48.1983H266.263H267.248V49.1833V51.8508V52.8357H266.263H252.677V62.5531H268.22H269.205V63.538V66.2056V67.1904H268.22ZM271.842 66.2056V35.7177V34.7329H272.827H291.422H292.407V35.7177V38.3853V39.3702H291.422H277.564V66.2056V67.1904H276.579H272.827H271.842V66.2056ZM318.684 67.0127H314.706H314.096L313.825 66.4624L309.211 57.1043H294.546L289.933 66.4624L289.662 67.0127H289.051H285.082H283.49L284.2 65.5891L299.425 35.1013L299.697 34.555H300.306H303.46H304.069L304.342 35.1013L319.566 65.5891L320.277 67.0127H318.684ZM301.877 42.2056L296.798 52.4664H306.959L301.877 42.2056ZM327.813 67.1242H324.007H323.022V66.1394V39.3462H316.178H315.192V38.3613V35.6516V34.6667H316.178H335.806H336.791V35.6516V38.3613V39.3462H335.806H328.798V66.1394V67.1242H327.813Z" fill="#1D4797"></path><path fill-rule="evenodd" clip-rule="evenodd" d="M292.32 7.4231H350V10.4134H292.32V7.4231Z" fill="#1D4797"></path><path fill-rule="evenodd" clip-rule="evenodd" d="M292.32 13.5208H350V16.511H292.32V13.5208Z" fill="#1D4797"></path><path fill-rule="evenodd" clip-rule="evenodd" d="M67.5936 35.882H69.4948V48.4618L77.9072 35.882H80.0267V51.7597H78.1259V39.2233L69.6914 51.7597H67.5936V35.882Z" fill="#1D4797"></path><path fill-rule="evenodd" clip-rule="evenodd" d="M82.0371 51.7597V35.882H84.1347V42.412H92.3504V35.882H94.4483V51.7597H92.3504V44.2683H84.1347V51.7597H82.0371Z" fill="#1D4797"></path><path fill-rule="evenodd" clip-rule="evenodd" d="M100.654 51.7597V37.76H95.4315V35.882H107.996V37.76H102.751V51.7597H100.654Z" fill="#1D4797"></path><path fill-rule="evenodd" clip-rule="evenodd" d="M108.739 51.7597V35.882H120.189V37.76H110.836V42.6086H119.598V44.4869H110.836V49.8813H120.56V51.7597H108.739Z" fill="#1D4797"></path><path fill-rule="evenodd" clip-rule="evenodd" d="M122.024 51.7597V35.882H127.989L128.994 35.9036L129.825 35.9474L130.196 35.991L130.546 36.0565L130.83 36.1003L131.114 36.1877L131.442 36.2969L131.747 36.4279L132.054 36.5806L132.337 36.7773L132.6 36.974L132.862 37.1922L133.08 37.4324L133.299 37.7165L133.495 38.0002L133.649 38.3061L133.801 38.6118L133.911 38.9613L133.998 39.3108L134.064 39.6602L134.107 40.0533V40.4465L134.085 40.9705L134.02 41.4728L133.976 41.7133L133.933 41.9535L133.845 42.1718L133.78 42.3901L133.692 42.6086L133.583 42.8269L133.474 43.0236L133.364 43.2201L133.233 43.4166L133.08 43.5913L132.949 43.7879L132.774 43.9627L132.6 44.1155L132.425 44.2683L132.206 44.4212L131.988 44.5524L131.747 44.6616L131.507 44.7706L131.245 44.88L130.961 44.9673L130.677 45.0547L130.349 45.1202L130.043 45.1857L129.693 45.2294L129.344 45.2514L128.972 45.2949H128.579L128.186 45.3168H124.121V51.7597H122.024ZM124.121 43.4385H128.23L128.688 43.4166L129.125 43.395L129.519 43.3292L129.89 43.2418L130.24 43.1545L130.546 43.0236L130.808 42.8707L131.048 42.7179L131.267 42.5213L131.442 42.3029L131.595 42.0625L131.726 41.8004L131.835 41.5166L131.9 41.2107L131.944 40.8831V40.5337V40.3154L131.922 40.0752L131.879 39.8786L131.835 39.6602L131.769 39.4635L131.704 39.267L131.616 39.0924L131.507 38.9177L131.398 38.7647L131.267 38.6118L131.157 38.4808L131.026 38.3497L130.873 38.2406L130.742 38.1533L130.589 38.0659L130.437 38.0002L130.262 37.9347L130.065 37.8912L129.825 37.8474L129.562 37.8038L128.929 37.76H128.186H124.121V43.4385Z" fill="#1D4797"></path><path fill-rule="evenodd" clip-rule="evenodd" d="M135.353 51.7597V35.882H137.451V42.412H145.688V35.882H147.786V51.7597H145.688V44.2683H137.451V51.7597H135.353Z" fill="#1D4797"></path><path fill-rule="evenodd" clip-rule="evenodd" d="M149.971 51.7597V35.882H161.399V37.76H152.047V42.6086H160.809V44.4869H152.047V49.8813H161.77V51.7597H149.971Z" fill="#1D4797"></path><path fill-rule="evenodd" clip-rule="evenodd" d="M167.32 51.7597V37.76H162.098V35.882H174.662V37.76H169.418V51.7597H167.32Z" fill="#1D4797"></path></g><path d="M-0.019 79.7H0.872V84.56L4.598 79.7H5.426V86H4.544V81.149L0.809 86H-0.019V79.7ZM12.2592 80.483H10.0992V86H9.21718V80.483H7.06618V79.7H12.2592V80.483ZM13.1262 83.156H15.5472V83.903H13.1262V83.156ZM19.9645 81.185C20.4265 81.185 20.8405 81.287 21.2065 81.491C21.5725 81.695 21.8575 81.98 22.0615 82.346C22.2715 82.712 22.3765 83.135 22.3765 83.615C22.3765 84.095 22.2715 84.521 22.0615 84.893C21.8575 85.259 21.5725 85.544 21.2065 85.748C20.8405 85.952 20.4265 86.054 19.9645 86.054C19.6225 86.054 19.3075 85.988 19.0195 85.856C18.7375 85.724 18.4975 85.532 18.2995 85.28V87.746H17.4355V81.23H18.2635V81.986C18.4555 81.722 18.6985 81.524 18.9925 81.392C19.2865 81.254 19.6105 81.185 19.9645 81.185ZM19.8925 85.298C20.1985 85.298 20.4715 85.229 20.7115 85.091C20.9575 84.947 21.1495 84.749 21.2875 84.497C21.4315 84.239 21.5035 83.945 21.5035 83.615C21.5035 83.285 21.4315 82.994 21.2875 82.742C21.1495 82.484 20.9575 82.286 20.7115 82.148C20.4715 82.01 20.1985 81.941 19.8925 81.941C19.5925 81.941 19.3195 82.013 19.0735 82.157C18.8335 82.295 18.6415 82.49 18.4975 82.742C18.3595 82.994 18.2905 83.285 18.2905 83.615C18.2905 83.945 18.3595 84.239 18.4975 84.497C18.6355 84.749 18.8275 84.947 19.0735 85.091C19.3195 85.229 19.5925 85.298 19.8925 85.298ZM28.4828 83.642C28.4828 83.708 28.4768 83.795 28.4648 83.903H24.5948C24.6488 84.323 24.8318 84.662 25.1438 84.92C25.4618 85.172 25.8548 85.298 26.3228 85.298C26.8928 85.298 27.3518 85.106 27.6998 84.722L28.1768 85.28C27.9608 85.532 27.6908 85.724 27.3668 85.856C27.0488 85.988 26.6918 86.054 26.2958 86.054C25.7918 86.054 25.3448 85.952 24.9548 85.748C24.5648 85.538 24.2618 85.247 24.0458 84.875C23.8358 84.503 23.7308 84.083 23.7308 83.615C23.7308 83.153 23.8328 82.736 24.0368 82.364C24.2468 81.992 24.5318 81.704 24.8918 81.5C25.2578 81.29 25.6688 81.185 26.1248 81.185C26.5808 81.185 26.9858 81.29 27.3398 81.5C27.6998 81.704 27.9788 81.992 28.1768 82.364C28.3808 82.736 28.4828 83.162 28.4828 83.642ZM26.1248 81.914C25.7108 81.914 25.3628 82.04 25.0808 82.292C24.8048 82.544 24.6428 82.874 24.5948 83.282H27.6548C27.6068 82.88 27.4418 82.553 27.1598 82.301C26.8838 82.043 26.5388 81.914 26.1248 81.914ZM37.1582 81.23V86H30.3632V81.23H31.2272V85.244H33.3332V81.23H34.1972V85.244H36.2942V81.23H37.1582ZM43.6868 83.642C43.6868 83.708 43.6808 83.795 43.6688 83.903H39.7988C39.8528 84.323 40.0358 84.662 40.3478 84.92C40.6658 85.172 41.0588 85.298 41.5268 85.298C42.0968 85.298 42.5558 85.106 42.9038 84.722L43.3808 85.28C43.1648 85.532 42.8948 85.724 42.5708 85.856C42.2528 85.988 41.8958 86.054 41.4998 86.054C40.9958 86.054 40.5488 85.952 40.1588 85.748C39.7688 85.538 39.4658 85.247 39.2498 84.875C39.0398 84.503 38.9348 84.083 38.9348 83.615C38.9348 83.153 39.0368 82.736 39.2408 82.364C39.4508 81.992 39.7358 81.704 40.0958 81.5C40.4618 81.29 40.8728 81.185 41.3288 81.185C41.7848 81.185 42.1898 81.29 42.5438 81.5C42.9038 81.704 43.1828 81.992 43.3808 82.364C43.5848 82.736 43.6868 83.162 43.6868 83.642ZM41.3288 81.914C40.9148 81.914 40.5668 82.04 40.2848 82.292C40.0088 82.544 39.8468 82.874 39.7988 83.282H42.8588C42.8108 82.88 42.6458 82.553 42.3638 82.301C42.0878 82.043 41.7428 81.914 41.3288 81.914ZM45.5672 81.23H46.4312V83.255H49.1492V81.23H50.0132V86H49.1492V84.002H46.4312V86H45.5672V81.23ZM52.2332 81.23H53.0972V84.704L56.0222 81.23H56.8052V86H55.9412V82.526L53.0252 86H52.2332V81.23ZM62.8472 81.23V86H62.0732V84.488H60.6872H60.5882L59.5442 86H58.6172L59.7782 84.371C59.4182 84.263 59.1422 84.086 58.9502 83.84C58.7582 83.588 58.6622 83.276 58.6622 82.904C58.6622 82.358 58.8482 81.944 59.2202 81.662C59.5922 81.374 60.1052 81.23 60.7592 81.23H62.8472ZM59.5442 82.931C59.5442 83.249 59.6432 83.486 59.8412 83.642C60.0452 83.792 60.3482 83.867 60.7502 83.867H62.0732V81.986H60.7862C59.9582 81.986 59.5442 82.301 59.5442 82.931ZM72.8809 85.244V87.107H72.0709V86H68.0839V87.107H67.2649V85.244H67.5169C67.8229 85.226 68.0329 85.01 68.1469 84.596C68.2609 84.182 68.3389 83.597 68.3809 82.841L68.4529 81.23H72.1519V85.244H72.8809ZM69.1729 82.904C69.1489 83.504 69.0979 84.002 69.0199 84.398C68.9479 84.788 68.8129 85.07 68.6149 85.244H71.2879V81.986H69.2179L69.1729 82.904ZM78.6415 81.23V86H77.7775V81.986H75.7255L75.6715 83.048C75.6415 83.69 75.5845 84.227 75.5005 84.659C75.4165 85.085 75.2785 85.427 75.0865 85.685C74.8945 85.943 74.6275 86.072 74.2855 86.072C74.1295 86.072 73.9525 86.045 73.7545 85.991L73.8085 85.262C73.8865 85.28 73.9585 85.289 74.0245 85.289C74.2645 85.289 74.4445 85.184 74.5645 84.974C74.6845 84.764 74.7625 84.515 74.7985 84.227C74.8345 83.939 74.8675 83.528 74.8975 82.994L74.9785 81.23H78.6415ZM84.6771 81.23V86H83.9031V84.488H82.5171H82.4181L81.3741 86H80.4471L81.6081 84.371C81.2481 84.263 80.9721 84.086 80.7801 83.84C80.5881 83.588 80.4921 83.276 80.4921 82.904C80.4921 82.358 80.6781 81.944 81.0501 81.662C81.4221 81.374 81.9351 81.23 82.5891 81.23H84.6771ZM81.3741 82.931C81.3741 83.249 81.4731 83.486 81.6711 83.642C81.8751 83.792 82.1781 83.867 82.5801 83.867H83.9031V81.986H82.6161C81.7881 81.986 81.3741 82.301 81.3741 82.931ZM93.3699 81.986H90.7239V86H89.8599V81.23H93.3699V81.986ZM96.6264 86.054C96.1524 86.054 95.7264 85.949 95.3484 85.739C94.9704 85.529 94.6734 85.241 94.4574 84.875C94.2474 84.503 94.1424 84.083 94.1424 83.615C94.1424 83.147 94.2474 82.73 94.4574 82.364C94.6734 81.992 94.9704 81.704 95.3484 81.5C95.7264 81.29 96.1524 81.185 96.6264 81.185C97.1004 81.185 97.5234 81.29 97.8954 81.5C98.2734 81.704 98.5674 81.992 98.7774 82.364C98.9934 82.73 99.1014 83.147 99.1014 83.615C99.1014 84.083 98.9934 84.503 98.7774 84.875C98.5674 85.241 98.2734 85.529 97.8954 85.739C97.5234 85.949 97.1004 86.054 96.6264 86.054ZM96.6264 85.298C96.9324 85.298 97.2054 85.229 97.4454 85.091C97.6914 84.947 97.8834 84.749 98.0214 84.497C98.1594 84.239 98.2284 83.945 98.2284 83.615C98.2284 83.285 98.1594 82.994 98.0214 82.742C97.8834 82.484 97.6914 82.286 97.4454 82.148C97.2054 82.01 96.9324 81.941 96.6264 81.941C96.3204 81.941 96.0444 82.01 95.7984 82.148C95.5584 82.286 95.3664 82.484 95.2224 82.742C95.0844 82.994 95.0154 83.285 95.0154 83.615C95.0154 83.945 95.0844 84.239 95.2224 84.497C95.3664 84.749 95.5584 84.947 95.7984 85.091C96.0444 85.229 96.3204 85.298 96.6264 85.298ZM102.968 86.054C102.482 86.054 102.047 85.949 101.663 85.739C101.285 85.529 100.988 85.241 100.772 84.875C100.556 84.503 100.448 84.083 100.448 83.615C100.448 83.147 100.556 82.73 100.772 82.364C100.988 81.992 101.285 81.704 101.663 81.5C102.047 81.29 102.482 81.185 102.968 81.185C103.4 81.185 103.784 81.272 104.12 81.446C104.462 81.62 104.726 81.872 104.912 82.202L104.255 82.625C104.105 82.397 103.919 82.226 103.697 82.112C103.475 81.998 103.229 81.941 102.959 81.941C102.647 81.941 102.365 82.01 102.113 82.148C101.867 82.286 101.672 82.484 101.528 82.742C101.39 82.994 101.321 83.285 101.321 83.615C101.321 83.951 101.39 84.248 101.528 84.506C101.672 84.758 101.867 84.953 102.113 85.091C102.365 85.229 102.647 85.298 102.959 85.298C103.229 85.298 103.475 85.241 103.697 85.127C103.919 85.013 104.105 84.842 104.255 84.614L104.912 85.028C104.726 85.358 104.462 85.613 104.12 85.793C103.784 85.967 103.4 86.054 102.968 86.054ZM110.766 81.23L108.453 86.477C108.249 86.963 108.009 87.305 107.733 87.503C107.463 87.701 107.136 87.8 106.752 87.8C106.518 87.8 106.29 87.761 106.068 87.683C105.852 87.611 105.672 87.503 105.528 87.359L105.897 86.711C106.143 86.945 106.428 87.062 106.752 87.062C106.962 87.062 107.136 87.005 107.274 86.891C107.418 86.783 107.547 86.594 107.661 86.324L107.814 85.991L105.708 81.23H106.608L108.273 85.046L109.92 81.23H110.766ZM116.787 85.244V87.107H115.977V86H111.99V87.107H111.171V85.244H111.423C111.729 85.226 111.939 85.01 112.053 84.596C112.167 84.182 112.245 83.597 112.287 82.841L112.359 81.23H116.058V85.244H116.787ZM113.079 82.904C113.055 83.504 113.004 84.002 112.926 84.398C112.854 84.788 112.719 85.07 112.521 85.244H115.194V81.986H113.124L113.079 82.904ZM120.153 81.185C120.813 81.185 121.317 81.347 121.665 81.671C122.019 81.995 122.196 82.478 122.196 83.12V86H121.377V85.37C121.233 85.592 121.026 85.763 120.756 85.883C120.492 85.997 120.177 86.054 119.811 86.054C119.277 86.054 118.848 85.925 118.524 85.667C118.206 85.409 118.047 85.07 118.047 84.65C118.047 84.23 118.2 83.894 118.506 83.642C118.812 83.384 119.298 83.255 119.964 83.255H121.332V83.084C121.332 82.712 121.224 82.427 121.008 82.229C120.792 82.031 120.474 81.932 120.054 81.932C119.772 81.932 119.496 81.98 119.226 82.076C118.956 82.166 118.728 82.289 118.542 82.445L118.182 81.797C118.428 81.599 118.722 81.449 119.064 81.347C119.406 81.239 119.769 81.185 120.153 81.185ZM119.955 85.388C120.285 85.388 120.57 85.316 120.81 85.172C121.05 85.022 121.224 84.812 121.332 84.542V83.876H120C119.268 83.876 118.902 84.122 118.902 84.614C118.902 84.854 118.995 85.043 119.181 85.181C119.367 85.319 119.625 85.388 119.955 85.388ZM126.821 81.185C127.283 81.185 127.697 81.287 128.063 81.491C128.429 81.695 128.714 81.98 128.918 82.346C129.128 82.712 129.233 83.135 129.233 83.615C129.233 84.095 129.128 84.521 128.918 84.893C128.714 85.259 128.429 85.544 128.063 85.748C127.697 85.952 127.283 86.054 126.821 86.054C126.479 86.054 126.164 85.988 125.876 85.856C125.594 85.724 125.354 85.532 125.156 85.28V87.746H124.292V81.23H125.12V81.986C125.312 81.722 125.555 81.524 125.849 81.392C126.143 81.254 126.467 81.185 126.821 81.185ZM126.749 85.298C127.055 85.298 127.328 85.229 127.568 85.091C127.814 84.947 128.006 84.749 128.144 84.497C128.288 84.239 128.36 83.945 128.36 83.615C128.36 83.285 128.288 82.994 128.144 82.742C128.006 82.484 127.814 82.286 127.568 82.148C127.328 82.01 127.055 81.941 126.749 81.941C126.449 81.941 126.176 82.013 125.93 82.157C125.69 82.295 125.498 82.49 125.354 82.742C125.216 82.994 125.147 83.285 125.147 83.615C125.147 83.945 125.216 84.239 125.354 84.497C125.492 84.749 125.684 84.947 125.93 85.091C126.176 85.229 126.449 85.298 126.749 85.298ZM133.108 86.054C132.622 86.054 132.187 85.949 131.803 85.739C131.425 85.529 131.128 85.241 130.912 84.875C130.696 84.503 130.588 84.083 130.588 83.615C130.588 83.147 130.696 82.73 130.912 82.364C131.128 81.992 131.425 81.704 131.803 81.5C132.187 81.29 132.622 81.185 133.108 81.185C133.54 81.185 133.924 81.272 134.26 81.446C134.602 81.62 134.866 81.872 135.052 82.202L134.395 82.625C134.245 82.397 134.059 82.226 133.837 82.112C133.615 81.998 133.369 81.941 133.099 81.941C132.787 81.941 132.505 82.01 132.253 82.148C132.007 82.286 131.812 82.484 131.668 82.742C131.53 82.994 131.461 83.285 131.461 83.615C131.461 83.951 131.53 84.248 131.668 84.506C131.812 84.758 132.007 84.953 132.253 85.091C132.505 85.229 132.787 85.298 133.099 85.298C133.369 85.298 133.615 85.241 133.837 85.127C134.059 85.013 134.245 84.842 134.395 84.614L135.052 85.028C134.866 85.358 134.602 85.613 134.26 85.793C133.924 85.967 133.54 86.054 133.108 86.054ZM140.204 81.986H138.458V86H137.594V81.986H135.848V81.23H140.204V81.986ZM144.876 83.525C145.494 83.681 145.803 84.068 145.803 84.686C145.803 85.106 145.644 85.43 145.326 85.658C145.014 85.886 144.546 86 143.922 86H141.627V81.23H143.841C144.405 81.23 144.846 81.338 145.164 81.554C145.482 81.764 145.641 82.064 145.641 82.454C145.641 82.706 145.572 82.925 145.434 83.111C145.302 83.291 145.116 83.429 144.876 83.525ZM142.473 83.282H143.769C144.099 83.282 144.348 83.222 144.516 83.102C144.69 82.982 144.777 82.808 144.777 82.58C144.777 82.124 144.441 81.896 143.769 81.896H142.473V83.282ZM143.859 85.334C144.219 85.334 144.489 85.277 144.669 85.163C144.849 85.049 144.939 84.872 144.939 84.632C144.939 84.386 144.855 84.203 144.687 84.083C144.525 83.963 144.267 83.903 143.913 83.903H142.473V85.334H143.859ZM152.006 83.642C152.006 83.708 152 83.795 151.988 83.903H148.118C148.172 84.323 148.355 84.662 148.667 84.92C148.985 85.172 149.378 85.298 149.846 85.298C150.416 85.298 150.875 85.106 151.223 84.722L151.7 85.28C151.484 85.532 151.214 85.724 150.89 85.856C150.572 85.988 150.215 86.054 149.819 86.054C149.315 86.054 148.868 85.952 148.478 85.748C148.088 85.538 147.785 85.247 147.569 84.875C147.359 84.503 147.254 84.083 147.254 83.615C147.254 83.153 147.356 82.736 147.56 82.364C147.77 81.992 148.055 81.704 148.415 81.5C148.781 81.29 149.192 81.185 149.648 81.185C150.104 81.185 150.509 81.29 150.863 81.5C151.223 81.704 151.502 81.992 151.7 82.364C151.904 82.736 152.006 83.162 152.006 83.642ZM149.648 81.914C149.234 81.914 148.886 82.04 148.604 82.292C148.328 82.544 148.166 82.874 148.118 83.282H151.178C151.13 82.88 150.965 82.553 150.683 82.301C150.407 82.043 150.062 81.914 149.648 81.914ZM153.887 81.23H154.751V83.255H157.469V81.23H158.333V86H157.469V84.002H154.751V86H153.887V81.23ZM160.553 81.23H161.417V83.255H164.135V81.23H164.999V86H164.135V84.002H161.417V86H160.553V81.23ZM169.262 86.054C168.788 86.054 168.362 85.949 167.984 85.739C167.606 85.529 167.309 85.241 167.093 84.875C166.883 84.503 166.778 84.083 166.778 83.615C166.778 83.147 166.883 82.73 167.093 82.364C167.309 81.992 167.606 81.704 167.984 81.5C168.362 81.29 168.788 81.185 169.262 81.185C169.736 81.185 170.159 81.29 170.531 81.5C170.909 81.704 171.203 81.992 171.413 82.364C171.629 82.73 171.737 83.147 171.737 83.615C171.737 84.083 171.629 84.503 171.413 84.875C171.203 85.241 170.909 85.529 170.531 85.739C170.159 85.949 169.736 86.054 169.262 86.054ZM169.262 85.298C169.568 85.298 169.841 85.229 170.081 85.091C170.327 84.947 170.519 84.749 170.657 84.497C170.795 84.239 170.864 83.945 170.864 83.615C170.864 83.285 170.795 82.994 170.657 82.742C170.519 82.484 170.327 82.286 170.081 82.148C169.841 82.01 169.568 81.941 169.262 81.941C168.956 81.941 168.68 82.01 168.434 82.148C168.194 82.286 168.002 82.484 167.858 82.742C167.72 82.994 167.651 83.285 167.651 83.615C167.651 83.945 167.72 84.239 167.858 84.497C168.002 84.749 168.194 84.947 168.434 85.091C168.68 85.229 168.956 85.298 169.262 85.298ZM177.034 81.986H174.388V86H173.524V81.23H177.034V81.986ZM180.291 86.054C179.817 86.054 179.391 85.949 179.013 85.739C178.635 85.529 178.338 85.241 178.122 84.875C177.912 84.503 177.807 84.083 177.807 83.615C177.807 83.147 177.912 82.73 178.122 82.364C178.338 81.992 178.635 81.704 179.013 81.5C179.391 81.29 179.817 81.185 180.291 81.185C180.765 81.185 181.188 81.29 181.56 81.5C181.938 81.704 182.232 81.992 182.442 82.364C182.658 82.73 182.766 83.147 182.766 83.615C182.766 84.083 182.658 84.503 182.442 84.875C182.232 85.241 181.938 85.529 181.56 85.739C181.188 85.949 180.765 86.054 180.291 86.054ZM180.291 85.298C180.597 85.298 180.87 85.229 181.11 85.091C181.356 84.947 181.548 84.749 181.686 84.497C181.824 84.239 181.893 83.945 181.893 83.615C181.893 83.285 181.824 82.994 181.686 82.742C181.548 82.484 181.356 82.286 181.11 82.148C180.87 82.01 180.597 81.941 180.291 81.941C179.985 81.941 179.709 82.01 179.463 82.148C179.223 82.286 179.031 82.484 178.887 82.742C178.749 82.994 178.68 83.285 178.68 83.615C178.68 83.945 178.749 84.239 178.887 84.497C179.031 84.749 179.223 84.947 179.463 85.091C179.709 85.229 179.985 85.298 180.291 85.298ZM187.511 81.23H188.375V84.704L191.3 81.23H192.083V86H191.219V82.526L188.303 86H187.511V81.23ZM202.756 81.23V86H201.973V82.517L200.191 85.46H199.813L198.049 82.508V86H197.257V81.23H198.148L200.02 84.452L201.946 81.23H202.756ZM209.234 81.23L206.921 86.477C206.717 86.963 206.477 87.305 206.201 87.503C205.931 87.701 205.604 87.8 205.22 87.8C204.986 87.8 204.758 87.761 204.536 87.683C204.32 87.611 204.14 87.503 203.996 87.359L204.365 86.711C204.611 86.945 204.896 87.062 205.22 87.062C205.43 87.062 205.604 87.005 205.742 86.891C205.886 86.783 206.015 86.594 206.129 86.324L206.282 85.991L204.176 81.23H205.076L206.741 85.046L208.388 81.23H209.234ZM210.659 81.23H211.523V83.255H214.241V81.23H215.105V86H214.241V84.002H211.523V86H210.659V81.23ZM217.325 81.23H218.189V84.704L221.114 81.23H221.897V86H221.033V82.526L218.117 86H217.325V81.23ZM229.208 85.244V87.143H228.389V86H224.114V81.23H224.978V85.244H227.588V81.23H228.452V85.244H229.208ZM230.868 81.23H231.732V84.704L234.657 81.23H235.44V86H234.576V82.526L231.66 86H230.868V81.23ZM242.076 81.23V86H241.212V81.986H238.521V86H237.657V81.23H242.076ZM245.989 81.185C246.649 81.185 247.153 81.347 247.501 81.671C247.855 81.995 248.032 82.478 248.032 83.12V86H247.213V85.37C247.069 85.592 246.862 85.763 246.592 85.883C246.328 85.997 246.013 86.054 245.647 86.054C245.113 86.054 244.684 85.925 244.36 85.667C244.042 85.409 243.883 85.07 243.883 84.65C243.883 84.23 244.036 83.894 244.342 83.642C244.648 83.384 245.134 83.255 245.8 83.255H247.168V83.084C247.168 82.712 247.06 82.427 246.844 82.229C246.628 82.031 246.31 81.932 245.89 81.932C245.608 81.932 245.332 81.98 245.062 82.076C244.792 82.166 244.564 82.289 244.378 82.445L244.018 81.797C244.264 81.599 244.558 81.449 244.9 81.347C245.242 81.239 245.605 81.185 245.989 81.185ZM245.791 85.388C246.121 85.388 246.406 85.316 246.646 85.172C246.886 85.022 247.06 84.812 247.168 84.542V83.876H245.836C245.104 83.876 244.738 84.122 244.738 84.614C244.738 84.854 244.831 85.043 245.017 85.181C245.203 85.319 245.461 85.388 245.791 85.388ZM254.222 81.23V86H253.358V81.986H251.306L251.252 83.048C251.222 83.69 251.165 84.227 251.081 84.659C250.997 85.085 250.859 85.427 250.667 85.685C250.475 85.943 250.208 86.072 249.866 86.072C249.71 86.072 249.533 86.045 249.335 85.991L249.389 85.262C249.467 85.28 249.539 85.289 249.605 85.289C249.845 85.289 250.025 85.184 250.145 84.974C250.265 84.764 250.343 84.515 250.379 84.227C250.415 83.939 250.448 83.528 250.478 82.994L250.559 81.23H254.222ZM258.638 82.85C259.244 82.856 259.706 82.994 260.024 83.264C260.342 83.534 260.501 83.915 260.501 84.407C260.501 84.923 260.327 85.322 259.979 85.604C259.637 85.88 259.145 86.015 258.503 86.009L256.433 86V81.23H257.297V82.841L258.638 82.85ZM258.431 85.352C258.821 85.358 259.115 85.28 259.313 85.118C259.517 84.956 259.619 84.716 259.619 84.398C259.619 84.086 259.52 83.858 259.322 83.714C259.13 83.57 258.833 83.495 258.431 83.489L257.297 83.471V85.343L258.431 85.352ZM262.15 81.23H263.014V83.255H265.732V81.23H266.596V86H265.732V84.002H263.014V86H262.15V81.23ZM270.859 86.054C270.385 86.054 269.959 85.949 269.581 85.739C269.203 85.529 268.906 85.241 268.69 84.875C268.48 84.503 268.375 84.083 268.375 83.615C268.375 83.147 268.48 82.73 268.69 82.364C268.906 81.992 269.203 81.704 269.581 81.5C269.959 81.29 270.385 81.185 270.859 81.185C271.333 81.185 271.756 81.29 272.128 81.5C272.506 81.704 272.8 81.992 273.01 82.364C273.226 82.73 273.334 83.147 273.334 83.615C273.334 84.083 273.226 84.503 273.01 84.875C272.8 85.241 272.506 85.529 272.128 85.739C271.756 85.949 271.333 86.054 270.859 86.054ZM270.859 85.298C271.165 85.298 271.438 85.229 271.678 85.091C271.924 84.947 272.116 84.749 272.254 84.497C272.392 84.239 272.461 83.945 272.461 83.615C272.461 83.285 272.392 82.994 272.254 82.742C272.116 82.484 271.924 82.286 271.678 82.148C271.438 82.01 271.165 81.941 270.859 81.941C270.553 81.941 270.277 82.01 270.031 82.148C269.791 82.286 269.599 82.484 269.455 82.742C269.317 82.994 269.248 83.285 269.248 83.615C269.248 83.945 269.317 84.239 269.455 84.497C269.599 84.749 269.791 84.947 270.031 85.091C270.277 85.229 270.553 85.298 270.859 85.298ZM278.631 81.986H275.985V86H275.121V81.23H278.631V81.986ZM281.888 86.054C281.414 86.054 280.988 85.949 280.61 85.739C280.232 85.529 279.935 85.241 279.719 84.875C279.509 84.503 279.404 84.083 279.404 83.615C279.404 83.147 279.509 82.73 279.719 82.364C279.935 81.992 280.232 81.704 280.61 81.5C280.988 81.29 281.414 81.185 281.888 81.185C282.362 81.185 282.785 81.29 283.157 81.5C283.535 81.704 283.829 81.992 284.039 82.364C284.255 82.73 284.363 83.147 284.363 83.615C284.363 84.083 284.255 84.503 284.039 84.875C283.829 85.241 283.535 85.529 283.157 85.739C282.785 85.949 282.362 86.054 281.888 86.054ZM281.888 85.298C282.194 85.298 282.467 85.229 282.707 85.091C282.953 84.947 283.145 84.749 283.283 84.497C283.421 84.239 283.49 83.945 283.49 83.615C283.49 83.285 283.421 82.994 283.283 82.742C283.145 82.484 282.953 82.286 282.707 82.148C282.467 82.01 282.194 81.941 281.888 81.941C281.582 81.941 281.306 82.01 281.06 82.148C280.82 82.286 280.628 82.484 280.484 82.742C280.346 82.994 280.277 83.285 280.277 83.615C280.277 83.945 280.346 84.239 280.484 84.497C280.628 84.749 280.82 84.947 281.06 85.091C281.306 85.229 281.582 85.298 281.888 85.298ZM293.365 81.23L291.052 86.477C290.848 86.963 290.608 87.305 290.332 87.503C290.062 87.701 289.735 87.8 289.351 87.8C289.117 87.8 288.889 87.761 288.667 87.683C288.451 87.611 288.271 87.503 288.127 87.359L288.496 86.711C288.742 86.945 289.027 87.062 289.351 87.062C289.561 87.062 289.735 87.005 289.873 86.891C290.017 86.783 290.146 86.594 290.26 86.324L290.413 85.991L288.307 81.23H289.207L290.872 85.046L292.519 81.23H293.365ZM299.208 81.23V86H298.344V81.986H295.653V86H294.789V81.23H299.208ZM303.949 81.185C304.411 81.185 304.825 81.287 305.191 81.491C305.557 81.695 305.842 81.98 306.046 82.346C306.256 82.712 306.361 83.135 306.361 83.615C306.361 84.095 306.256 84.521 306.046 84.893C305.842 85.259 305.557 85.544 305.191 85.748C304.825 85.952 304.411 86.054 303.949 86.054C303.607 86.054 303.292 85.988 303.004 85.856C302.722 85.724 302.482 85.532 302.284 85.28V87.746H301.42V81.23H302.248V81.986C302.44 81.722 302.683 81.524 302.977 81.392C303.271 81.254 303.595 81.185 303.949 81.185ZM303.877 85.298C304.183 85.298 304.456 85.229 304.696 85.091C304.942 84.947 305.134 84.749 305.272 84.497C305.416 84.239 305.488 83.945 305.488 83.615C305.488 83.285 305.416 82.994 305.272 82.742C305.134 82.484 304.942 82.286 304.696 82.148C304.456 82.01 304.183 81.941 303.877 81.941C303.577 81.941 303.304 82.013 303.058 82.157C302.818 82.295 302.626 82.49 302.482 82.742C302.344 82.994 302.275 83.285 302.275 83.615C302.275 83.945 302.344 84.239 302.482 84.497C302.62 84.749 302.812 84.947 303.058 85.091C303.304 85.229 303.577 85.298 303.877 85.298ZM309.813 81.185C310.473 81.185 310.977 81.347 311.325 81.671C311.679 81.995 311.856 82.478 311.856 83.12V86H311.037V85.37C310.893 85.592 310.686 85.763 310.416 85.883C310.152 85.997 309.837 86.054 309.471 86.054C308.937 86.054 308.508 85.925 308.184 85.667C307.866 85.409 307.707 85.07 307.707 84.65C307.707 84.23 307.86 83.894 308.166 83.642C308.472 83.384 308.958 83.255 309.624 83.255H310.992V83.084C310.992 82.712 310.884 82.427 310.668 82.229C310.452 82.031 310.134 81.932 309.714 81.932C309.432 81.932 309.156 81.98 308.886 82.076C308.616 82.166 308.388 82.289 308.202 82.445L307.842 81.797C308.088 81.599 308.382 81.449 308.724 81.347C309.066 81.239 309.429 81.185 309.813 81.185ZM309.615 85.388C309.945 85.388 310.23 85.316 310.47 85.172C310.71 85.022 310.884 84.812 310.992 84.542V83.876H309.66C308.928 83.876 308.562 84.122 308.562 84.614C308.562 84.854 308.655 85.043 308.841 85.181C309.027 85.319 309.285 85.388 309.615 85.388ZM317.201 83.525C317.819 83.681 318.128 84.068 318.128 84.686C318.128 85.106 317.969 85.43 317.651 85.658C317.339 85.886 316.871 86 316.247 86H313.952V81.23H316.166C316.73 81.23 317.171 81.338 317.489 81.554C317.807 81.764 317.966 82.064 317.966 82.454C317.966 82.706 317.897 82.925 317.759 83.111C317.627 83.291 317.441 83.429 317.201 83.525ZM314.798 83.282H316.094C316.424 83.282 316.673 83.222 316.841 83.102C317.015 82.982 317.102 82.808 317.102 82.58C317.102 82.124 316.766 81.896 316.094 81.896H314.798V83.282ZM316.184 85.334C316.544 85.334 316.814 85.277 316.994 85.163C317.174 85.049 317.264 84.872 317.264 84.632C317.264 84.386 317.18 84.203 317.012 84.083C316.85 83.963 316.592 83.903 316.238 83.903H314.798V85.334H316.184ZM324.115 81.23V86H323.251V81.986H321.199L321.145 83.048C321.115 83.69 321.058 84.227 320.974 84.659C320.89 85.085 320.752 85.427 320.56 85.685C320.368 85.943 320.101 86.072 319.759 86.072C319.603 86.072 319.426 86.045 319.228 85.991L319.282 85.262C319.36 85.28 319.432 85.289 319.498 85.289C319.738 85.289 319.918 85.184 320.038 84.974C320.158 84.764 320.236 84.515 320.272 84.227C320.308 83.939 320.341 83.528 320.371 82.994L320.452 81.23H324.115ZM330.637 83.642C330.637 83.708 330.631 83.795 330.619 83.903H326.749C326.803 84.323 326.986 84.662 327.298 84.92C327.616 85.172 328.009 85.298 328.477 85.298C329.047 85.298 329.506 85.106 329.854 84.722L330.331 85.28C330.115 85.532 329.845 85.724 329.521 85.856C329.203 85.988 328.846 86.054 328.45 86.054C327.946 86.054 327.499 85.952 327.109 85.748C326.719 85.538 326.416 85.247 326.2 84.875C325.99 84.503 325.885 84.083 325.885 83.615C325.885 83.153 325.987 82.736 326.191 82.364C326.401 81.992 326.686 81.704 327.046 81.5C327.412 81.29 327.823 81.185 328.279 81.185C328.735 81.185 329.14 81.29 329.494 81.5C329.854 81.704 330.133 81.992 330.331 82.364C330.535 82.736 330.637 83.162 330.637 83.642ZM328.279 81.914C327.865 81.914 327.517 82.04 327.235 82.292C326.959 82.544 326.797 82.874 326.749 83.282H329.809C329.761 82.88 329.596 82.553 329.314 82.301C329.038 82.043 328.693 81.914 328.279 81.914ZM332.517 81.23H333.381V83.255H336.099V81.23H336.963V86H336.099V84.002H333.381V86H332.517V81.23ZM339.183 81.23H340.047V84.704L342.972 81.23H343.755V86H342.891V82.526L339.975 86H339.183V81.23ZM349.797 81.23V86H349.023V84.488H347.637H347.538L346.494 86H345.567L346.728 84.371C346.368 84.263 346.092 84.086 345.9 83.84C345.708 83.588 345.612 83.276 345.612 82.904C345.612 82.358 345.798 81.944 346.17 81.662C346.542 81.374 347.055 81.23 347.709 81.23H349.797ZM346.494 82.931C346.494 83.249 346.593 83.486 346.791 83.642C346.995 83.792 347.298 83.867 347.7 83.867H349.023V81.986H347.736C346.908 81.986 346.494 82.301 346.494 82.931Z" fill="#1D4797"></path></g><defs><clipPath id="clip0_884_2"><rect width="350" height="88" fill="white"></rect></clipPath><clipPath id="clip1_884_2"><rect width="350" height="70" fill="white"></rect></clipPath></defs></svg> 