<svg width="177" height="44" viewBox="0 0 177 44" fill="none" xmlns="http://www.w3.org/2000/svg">
<g clip-path="url(#clip0_1528_727)">
<mask id="mask0_1528_727" style="mask-type:luminance" maskUnits="userSpaceOnUse" x="0" y="0" width="177" height="44">
<path d="M177 0H0V44H177V0Z" fill="white"/>
</mask>
<g mask="url(#mask0_1528_727)">
<mask id="mask1_1528_727" style="mask-type:luminance" maskUnits="userSpaceOnUse" x="0" y="0" width="177" height="35">
<path d="M177 0H0V35H177V0Z" fill="white"/>
</mask>
<g mask="url(#mask1_1528_727)">
<path fill-rule="evenodd" clip-rule="evenodd" d="M18.1354 3.87458C15.5642 4.28848 11.8125 5.65125 8.48882 7.7011C5.89132 9.30315 3.56675 11.3189 2.3 13.6151C1.05583 15.8703 0.704121 17.8774 0.934641 19.7623C1.1667 21.6589 1.9912 23.4524 3.09211 25.2584C3.84939 26.5007 5.08238 28.1338 6.35941 29.2797C7.24244 30.072 8.12739 30.6217 8.83923 30.6055C9.06458 30.5326 9.36219 30.3202 9.70329 30.009C10.7178 29.0837 11.9748 27.3804 12.9426 25.7608C13.853 24.2376 14.5035 22.8344 14.4207 22.3238C14.0546 22.1096 13.6786 21.9274 13.3066 21.747C11.9744 21.1016 10.6829 20.4757 9.99034 18.6928C9.58506 17.6494 9.72494 16.3093 10.1761 14.8856C10.7219 13.1634 11.7283 11.2944 12.7578 9.70015C13.2801 8.89125 14.0949 7.95265 14.9825 7.0554C16.0259 6.00055 17.1763 4.99448 18.0721 4.32014C18.3333 4.12361 18.6634 3.92412 19.019 3.73232L18.1354 3.87458ZM8.03059 6.9733C11.4507 4.86399 15.3287 3.45887 17.9961 3.02951L21.8269 2.41278L21.8605 2.40624L21.8616 2.41362L21.8611 2.40766C22.1591 2.36059 22.3276 2.45774 22.3858 2.72327C22.3892 2.73582 22.3919 2.74853 22.394 2.76163L22.3927 2.76178C22.4497 3.10781 22.1074 3.25466 21.5785 3.48137C20.7911 3.81874 19.3455 4.43852 18.5981 5.00105C17.7305 5.6542 16.6156 6.62935 15.6037 7.65225C14.75 8.5152 13.9732 9.4073 13.4875 10.1597C12.4947 11.697 11.5258 13.4942 11.0041 15.1405C10.6065 16.3955 10.4715 17.5466 10.798 18.3876C11.3681 19.8554 12.5094 20.4086 13.6868 20.9789C14.1101 21.1842 14.5384 21.392 14.9482 21.6378C14.9925 21.6601 15.0335 21.6904 15.0692 21.7286L14.7501 22.02L15.0692 21.7299C15.1552 21.8219 15.2154 21.9363 15.2509 22.0701C15.4379 22.7775 14.7271 24.4604 13.6893 26.1969C12.6849 27.8779 11.3675 29.6571 10.2904 30.6397C9.84798 31.0431 9.42844 31.3253 9.06103 31.4332C9.02093 31.4481 8.978 31.4574 8.93294 31.4599L8.9079 31.0314L8.93162 31.4589C7.94821 31.5148 6.83528 30.8643 5.77581 29.9137C4.43132 28.7073 3.1396 26.9984 2.34884 25.7012C1.19102 23.8018 0.322317 21.9026 0.072715 19.8628C-0.178283 17.811 0.199136 15.6358 1.53973 13.2058C2.88646 10.7648 5.32107 8.64445 8.03059 6.9733Z" fill="white"/>
<path fill-rule="evenodd" clip-rule="evenodd" d="M24.7093 2.89404C31.1328 5.59445 30.0505 13.7501 26.9472 15.9194C23.8439 18.0886 22.205 18.8372 21.9391 19.4212C21.073 21.3235 20.2109 23.5489 18.8451 26.199C17.7267 28.3693 20.6384 27.2149 21.737 26.7699C25.0753 25.4176 26.1234 25.0102 29.5348 22.3952C32.9461 19.7801 34.7499 13.357 33.6103 10.0719C32.4707 6.7869 30.7034 5.2882 30.1016 4.91638C29.4997 4.54449 27.9885 3.7201 27.0393 3.48102L24.7093 2.89404Z" fill="white"/>
<path fill-rule="evenodd" clip-rule="evenodd" d="M22.8044 2.91638C23.6333 2.91629 24.4868 5.1709 24.13 6.95015C23.696 9.1139 23.3668 10.8749 22.5892 13.4415C21.8117 16.0082 18.6631 24.9437 17.7899 26.5879L13.9795 33.7617C13.1074 35.4037 13.1463 34.1039 12.6949 33.6198C12.4168 33.3217 11.8639 32.9219 11.5091 32.8346C9.88976 32.4363 10.4076 32.41 11.5975 30.7793C12.7873 29.1486 14.1698 26.9128 14.912 25.3799C16.0593 23.0101 17.1 20.5909 18.1939 18.1967C19.2356 15.9166 19.9692 13.5244 20.8192 11.168C21.3794 9.61455 22.3902 5.2917 22.8044 2.91638Z" fill="white"/>
<path fill-rule="evenodd" clip-rule="evenodd" d="M23.4647 0.00863994C21.5998 0.00863994 22.7187 2.65022 23.589 2.65022C25.8269 2.65022 25.2053 -0.175679 23.4647 0.00863994Z" fill="white"/>
<path fill-rule="evenodd" clip-rule="evenodd" d="M99.7041 33.2572V34.5077V35.0001H99.2055H97.3085H96.8099V34.5077V33.2572C95.5178 33.2219 94.3233 33.0484 93.2264 32.7366C91.9783 32.3819 90.8586 31.8485 89.8674 31.1371C88.8621 30.4158 88.104 29.5751 87.5953 28.6161C87.0845 27.6537 86.8286 26.5826 86.8286 25.4037C86.8286 22.9961 87.8269 21.0576 89.8219 19.5893C90.7995 18.87 91.9166 18.3307 93.1728 17.9721C94.2823 17.6554 95.4945 17.4796 96.8099 17.4443V16.7442V16.2517H97.3085H99.2055H99.7041V16.7442V17.4443C101.019 17.4796 102.233 17.6554 103.341 17.9721C104.598 18.3309 105.715 18.8702 106.693 19.5893C107.686 20.3209 108.434 21.1722 108.933 22.1423C109.435 23.1161 109.685 24.2036 109.685 25.4037C109.685 26.5826 109.429 27.6537 108.919 28.6159C108.41 29.575 107.652 30.4156 106.647 31.1371C105.656 31.8485 104.536 32.3819 103.288 32.7366C102.191 33.0484 100.996 33.2219 99.7041 33.2572ZM99.7041 19.7648V30.9361C101.716 30.863 103.38 30.3412 104.696 29.3708C105.392 28.858 105.911 28.272 106.254 27.6135C106.594 26.9593 106.764 26.2224 106.764 25.4037C106.764 23.7295 106.087 22.3765 104.731 21.3463C104.039 20.8196 103.236 20.4234 102.324 20.1585C101.536 19.9295 100.662 19.7983 99.7041 19.7648ZM96.8099 19.765C94.7501 19.8373 93.0742 20.3644 91.7826 21.3463C91.1009 21.8646 90.5916 22.4605 90.2543 23.1332C89.9185 23.8042 89.7501 24.5613 89.7501 25.4037C89.7501 26.2308 89.9205 26.9726 90.2609 27.6285C90.6028 28.2879 91.1216 28.8725 91.8165 29.3814C92.5255 29.9007 93.3331 30.2907 94.2399 30.5509C95.0187 30.7745 95.8753 30.903 96.8099 30.9364V19.765ZM110.922 33.1739V17.93V17.4376H111.42H116.26C121.138 17.4376 123.577 19.0555 123.577 22.2915C123.577 23.1318 123.394 23.8706 123.031 24.5095C122.667 25.1488 122.125 25.6785 121.409 26.1003C120.789 26.4657 120.057 26.7407 119.214 26.9217C118.393 27.0982 117.463 27.1878 116.425 27.1878H113.844V33.1739V33.6663H113.346H111.42H110.922V33.1739ZM113.844 19.7562V24.8688H116.26C119.081 24.8688 120.491 24.0308 120.491 22.3549C120.491 21.5028 120.16 20.8676 119.499 20.4503C118.766 19.9877 117.632 19.7562 116.095 19.7562H113.844ZM135.643 33.5953H125.386H124.888V33.1029V17.8589V17.3665H125.386H135.643H136.141V17.8589V19.1927V19.6852H135.643H127.782V24.0992H134.653H135.151V24.5917V25.9255V26.4179H134.653H127.782V31.2766H135.643H136.141V31.7691V33.1029V33.5953H135.643ZM137.474 33.1029V17.8589V17.3665H137.973H147.376H147.874V17.8589V19.1927V19.6852H147.376H140.368V33.1029V33.5953H139.87H137.973H137.474V33.1029ZM161.163 33.5064H159.151H158.843L158.706 33.2313L156.372 28.5522H148.956L146.623 33.2313L146.486 33.5064H146.177H144.17H143.365L143.724 32.7946L151.423 17.5507L151.561 17.2776H151.869H153.464H153.772L153.91 17.5507L161.609 32.7946L161.969 33.5064H161.163ZM152.664 21.1029L150.095 26.2333H155.234L152.664 21.1029ZM165.78 33.5622H163.855H163.357V33.0698V19.6732H159.896H159.397V19.1807V17.8259V17.3334H159.896H169.822H170.32V17.8259V19.1807V19.6732H169.822H166.278V33.0698V33.5622H165.78Z" fill="white"/>
<path fill-rule="evenodd" clip-rule="evenodd" d="M147.831 3.71155H177V5.2067H147.831V3.71155Z" fill="white"/>
<path fill-rule="evenodd" clip-rule="evenodd" d="M147.831 6.76038H177V8.25548H147.831V6.76038Z" fill="white"/>
<path fill-rule="evenodd" clip-rule="evenodd" d="M34.1831 17.941H35.1446V24.2309L39.3988 17.941H40.4707V25.8799H39.5094V19.6117L35.244 25.8799H34.1831V17.941Z" fill="white"/>
<path fill-rule="evenodd" clip-rule="evenodd" d="M41.4873 25.8799V17.941H42.5481V21.206H46.7029V17.941H47.7638V25.8799H46.7029V22.1342H42.5481V25.8799H41.4873Z" fill="white"/>
<path fill-rule="evenodd" clip-rule="evenodd" d="M50.9023 25.8799V18.88H48.2612V17.941H54.6153V18.88H51.9628V25.8799H50.9023Z" fill="white"/>
<path fill-rule="evenodd" clip-rule="evenodd" d="M54.9907 25.8799V17.941H60.7812V18.88H56.0512V21.3043H60.4823V22.2435H56.0512V24.9407H60.9688V25.8799H54.9907Z" fill="white"/>
<path fill-rule="evenodd" clip-rule="evenodd" d="M61.7095 25.8799V17.941H64.7261L65.2343 17.9518L65.6545 17.9737L65.8422 17.9955L66.0192 18.0283L66.1628 18.0502L66.3064 18.0939L66.4723 18.1485L66.6265 18.214L66.7818 18.2903L66.9249 18.3887L67.0579 18.487L67.1904 18.5961L67.3006 18.7162L67.4114 18.8583L67.5105 19.0001L67.5884 19.1531L67.6653 19.3059L67.7209 19.4807L67.7649 19.6554L67.7983 19.8301L67.82 20.0267V20.2233L67.8089 20.4853L67.776 20.7364L67.7538 20.8567L67.732 20.9768L67.6875 21.0859L67.6546 21.1951L67.6101 21.3043L67.555 21.4135L67.4999 21.5118L67.4443 21.6101L67.378 21.7083L67.3006 21.7957L67.2344 21.894L67.1459 21.9814L67.0579 22.0578L66.9694 22.1342L66.8587 22.2106L66.7484 22.2762L66.6265 22.3308L66.5052 22.3853L66.3727 22.44L66.229 22.4837L66.0854 22.5274L65.9195 22.5601L65.7648 22.5929L65.5878 22.6147L65.4113 22.6257L65.2232 22.6475H65.0244L64.8257 22.6584H62.77V25.8799H61.7095ZM62.77 21.7193H64.8479L65.0796 21.7083L65.3005 21.6975L65.4998 21.6646L65.6874 21.6209L65.8644 21.5773L66.0192 21.5118L66.1517 21.4354L66.273 21.359L66.3838 21.2607L66.4723 21.1515L66.5497 21.0313L66.6159 20.9002L66.671 20.7583L66.7039 20.6054L66.7262 20.4416V20.2669V20.1577L66.715 20.0376L66.6933 19.9393L66.671 19.8301L66.6377 19.7318L66.6048 19.6335L66.5603 19.5462L66.5052 19.4589L66.45 19.3824L66.3838 19.3059L66.3282 19.2404L66.2619 19.1749L66.1845 19.1203L66.1183 19.0767L66.0409 19.033L65.964 19.0001L65.8755 18.9674L65.7759 18.9456L65.6545 18.9237L65.5215 18.9019L65.2014 18.88H64.8257H62.77V21.7193Z" fill="white"/>
<path fill-rule="evenodd" clip-rule="evenodd" d="M68.4497 25.8799V17.941H69.5107V21.206H73.6763V17.941H74.7373V25.8799H73.6763V22.1342H69.5107V25.8799H68.4497Z" fill="white"/>
<path fill-rule="evenodd" clip-rule="evenodd" d="M75.8423 25.8799V17.941H81.6216V18.88H76.8922V21.3043H81.3232V22.2435H76.8922V24.9407H81.8092V25.8799H75.8423Z" fill="white"/>
<path fill-rule="evenodd" clip-rule="evenodd" d="M84.6159 25.8799V18.88H81.9751V17.941H88.3289V18.88H85.6769V25.8799H84.6159Z" fill="white"/>
</g>
</g>
</g>
<defs>
<clipPath id="clip0_1528_727">
<rect width="177" height="44" fill="white"/>
</clipPath>
</defs>
</svg>
